<!DOCTYPE svg PUBLIC "-//W3C//DTD SVG 20010904//EN" "http://www.w3.org/TR/2001/REC-SVG-20010904/DTD/svg10.dtd">
<svg version="1.0" xmlns="http://www.w3.org/2000/svg" width="896px" height="157px" viewBox="0 0 8960 1570" preserveAspectRatio="xMidYMid meet">
<g id="layer101" fill="#000000" stroke="none">
 <path d="M3020 785 c0 -778 0 -785 20 -785 20 0 20 7 20 785 0 778 0 785 -20 785 -20 0 -20 -7 -20 -785z"/>
 <path d="M702 1533 c5 -26 38 -29 38 -4 0 15 -6 21 -21 21 -14 0 -19 -5 -17 -17z"/>
 <path d="M650 1480 c0 -13 7 -20 20 -20 13 0 20 7 20 20 0 13 -7 20 -20 20 -13 0 -20 -7 -20 -20z"/>
 <path d="M707 1493 c-14 -13 -6 -33 13 -33 13 0 20 7 20 20 0 19 -20 27 -33 13z"/>
 <path d="M657 1444 c-15 -15 -7 -45 11 -42 9 2 17 12 17 22 0 20 -16 31 -28 20z"/>
 <path d="M711 1440 c-17 -10 -7 -40 14 -40 8 0 15 9 15 19 0 24 -12 32 -29 21z"/>
 <path d="M2494 1436 c-7 -19 3 -36 22 -36 10 0 14 8 12 22 -4 26 -26 36 -34 14z"/>
 <path d="M650 1370 c0 -13 7 -20 20 -20 13 0 20 7 20 20 0 13 -7 20 -20 20 -13 0 -20 -7 -20 -20z"/>
 <path d="M700 1370 c0 -13 7 -20 20 -20 13 0 20 7 20 20 0 13 -7 20 -20 20 -13 0 -20 -7 -20 -20z"/>
 <path d="M2330 1370 c0 -13 7 -20 20 -20 13 0 20 7 20 20 0 13 -7 20 -20 20 -13 0 -20 -7 -20 -20z"/>
 <path d="M2545 1380 c-9 -15 4 -30 26 -30 12 0 19 7 19 20 0 21 -33 29 -45 10z"/>
 <path d="M4760 1210 c0 -153 1 -160 20 -160 11 0 20 6 20 14 0 11 8 10 38 -6 61 -32 145 -9 170 48 17 37 15 111 -5 141 -34 51 -115 67 -170 33 l-33 -20 0 55 c0 48 -2 55 -20 55 -19 0 -20 -7 -20 -160z m169 35 c32 -16 41 -33 41 -78 0 -75 -94 -106 -144 -46 -14 17 -26 37 -26 44 0 30 26 69 55 81 38 17 40 17 74 -1z"/>
 <path d="M652 1318 c2 -12 10 -23 18 -23 22 0 19 39 -3 43 -15 3 -18 -1 -15 -20z"/>
 <path d="M704 1325 c-7 -18 3 -35 22 -35 8 0 14 10 14 25 0 27 -27 35 -36 10z"/>
 <path d="M760 1315 c0 -20 4 -26 18 -23 9 2 17 12 17 23 0 11 -8 21 -17 23 -14 3 -18 -3 -18 -23z"/>
 <path d="M2114 1325 c-7 -18 3 -35 22 -35 8 0 14 10 14 25 0 27 -27 35 -36 10z"/>
 <path d="M2274 1325 c-4 -9 -2 -21 4 -27 15 -15 44 -1 40 19 -4 23 -36 29 -44 8z"/>
 <path d="M2333 1324 c-8 -21 13 -42 28 -27 13 13 5 43 -11 43 -6 0 -13 -7 -17 -16z"/>
 <path d="M2384 1325 c-4 -9 -2 -21 4 -27 15 -15 44 -1 40 19 -4 23 -36 29 -44 8z"/>
 <path d="M3631 1278 c-68 -35 -86 -66 -86 -148 0 -53 5 -75 21 -97 46 -63 160 -92 238 -59 42 18 52 34 33 53 -13 13 -17 13 -38 0 -117 -75 -256 43 -193 164 19 38 93 74 132 65 68 -16 82 -27 82 -62 l0 -34 -55 0 c-52 0 -55 -1 -55 -25 0 -24 2 -25 75 -25 l75 0 0 74 0 74 -37 18 c-61 29 -140 30 -192 2z"/>
 <path d="M4183 1285 c-95 -41 -94 -183 1 -226 23 -10 52 -19 66 -19 42 0 107 36 124 69 61 116 -64 231 -191 176z m114 -45 c60 -36 52 -119 -14 -146 -99 -42 -168 100 -74 151 35 19 50 18 88 -5z"/>
 <path d="M4488 1285 c-34 -19 -48 -66 -48 -162 0 -70 1 -73 24 -73 23 0 24 3 27 85 4 96 18 118 70 118 52 0 69 -30 69 -124 0 -78 0 -79 25 -79 l25 0 0 120 0 120 -25 0 c-14 0 -25 -4 -25 -9 0 -6 -12 -3 -27 5 -35 18 -80 17 -115 -1z"/>
 <path d="M3940 1170 l0 -120 25 0 c15 0 25 6 25 14 0 11 8 10 37 -5 49 -25 63 -24 63 5 0 19 -7 26 -30 31 -50 11 -70 47 -70 126 0 67 -1 69 -25 69 l-25 0 0 -120z"/>
 <path d="M650 1260 c0 -13 7 -20 20 -20 13 0 20 7 20 20 0 13 -7 20 -20 20 -13 0 -20 -7 -20 -20z"/>
 <path d="M700 1260 c0 -13 7 -20 20 -20 13 0 20 7 20 20 0 13 -7 20 -20 20 -13 0 -20 -7 -20 -20z"/>
 <path d="M760 1260 c0 -13 7 -20 20 -20 13 0 20 7 20 20 0 13 -7 20 -20 20 -13 0 -20 -7 -20 -20z"/>
 <path d="M810 1260 c0 -13 7 -20 20 -20 13 0 20 7 20 20 0 13 -7 20 -20 20 -13 0 -20 -7 -20 -20z"/>
 <path d="M1352 1263 c4 -22 43 -25 43 -3 0 8 -11 16 -23 18 -19 3 -23 0 -20 -15z"/>
 <path d="M1410 1260 c0 -13 7 -20 20 -20 13 0 20 7 20 20 0 13 -7 20 -20 20 -13 0 -20 -7 -20 -20z"/>
 <path d="M2110 1260 c0 -13 7 -20 20 -20 13 0 20 7 20 20 0 13 -7 20 -20 20 -13 0 -20 -7 -20 -20z"/>
 <path d="M2167 1274 c-11 -11 5 -34 24 -34 12 0 19 7 19 20 0 19 -28 28 -43 14z"/>
 <path d="M2220 1260 c0 -13 7 -20 20 -20 13 0 20 7 20 20 0 13 -7 20 -20 20 -13 0 -20 -7 -20 -20z"/>
 <path d="M2274 1269 c-9 -15 12 -33 30 -26 9 4 16 13 16 22 0 17 -35 21 -46 4z"/>
 <path d="M2330 1260 c0 -13 7 -20 20 -20 13 0 20 7 20 20 0 13 -7 20 -20 20 -13 0 -20 -7 -20 -20z"/>
 <path d="M2382 1263 c4 -22 43 -25 43 -3 0 8 -11 16 -23 18 -19 3 -23 0 -20 -15z"/>
 <path d="M2440 1260 c0 -13 7 -20 20 -20 13 0 20 7 20 20 0 13 -7 20 -20 20 -13 0 -20 -7 -20 -20z"/>
 <path d="M652 1180 c0 -36 4 -50 14 -50 20 0 30 30 13 41 -12 8 -12 10 0 18 17 11 7 41 -13 41 -10 0 -14 -14 -14 -50z"/>
 <path d="M707 1223 c-14 -13 -6 -33 13 -33 13 0 20 7 20 20 0 19 -20 27 -33 13z"/>
 <path d="M760 1211 c0 -15 6 -21 21 -21 14 0 19 5 17 17 -5 26 -38 29 -38 4z"/>
 <path d="M817 1223 c-14 -13 -6 -33 13 -33 13 0 20 7 20 20 0 19 -20 27 -33 13z"/>
 <path d="M1353 1214 c-3 -9 0 -20 8 -25 12 -8 12 -10 0 -18 -17 -11 -7 -41 13 -41 21 0 30 19 16 35 -10 12 -10 18 0 30 6 8 9 19 5 25 -10 15 -35 12 -42 -6z"/>
 <path d="M1410 1211 c0 -15 6 -21 21 -21 25 0 22 33 -4 38 -12 2 -17 -3 -17 -17z"/>
 <path d="M1463 1214 c-3 -9 0 -20 8 -25 12 -8 12 -10 0 -18 -17 -11 -7 -41 13 -41 10 0 14 14 14 50 0 36 -4 50 -14 50 -8 0 -17 -7 -21 -16z"/>
 <path d="M2113 1214 c-6 -16 15 -37 29 -28 4 3 8 14 8 25 0 23 -28 26 -37 3z"/>
 <path d="M2167 1216 c-7 -18 1 -26 25 -26 13 0 18 6 16 17 -4 22 -34 29 -41 9z"/>
 <path d="M2227 1223 c-14 -13 -6 -33 13 -33 13 0 20 7 20 20 0 19 -20 27 -33 13z"/>
 <path d="M2273 1214 c-3 -9 0 -20 8 -25 12 -8 12 -10 0 -18 -17 -11 -7 -41 14 -41 21 0 31 30 14 41 -12 8 -12 10 0 18 17 11 7 41 -14 41 -9 0 -18 -7 -22 -16z"/>
 <path d="M2330 1210 c0 -13 7 -20 20 -20 13 0 20 7 20 20 0 13 -7 20 -20 20 -13 0 -20 -7 -20 -20z"/>
 <path d="M2387 1224 c-16 -16 -6 -35 16 -32 12 2 22 10 22 18 0 16 -26 25 -38 14z"/>
 <path d="M2440 1211 c0 -15 6 -21 21 -21 25 0 22 33 -4 38 -12 2 -17 -3 -17 -17z"/>
 <path d="M711 1170 c-17 -10 -7 -40 14 -40 8 0 15 9 15 19 0 24 -12 32 -29 21z"/>
 <path d="M766 1173 c-3 -4 -6 -15 -6 -25 0 -24 33 -21 38 3 3 17 -21 33 -32 22z"/>
 <path d="M814 1166 c-7 -19 3 -36 22 -36 10 0 14 8 12 22 -4 26 -26 36 -34 14z"/>
 <path d="M870 1170 c-18 -11 -4 -42 17 -38 10 2 19 10 21 19 4 19 -19 31 -38 19z"/>
 <path d="M1307 1174 c-16 -16 -7 -44 14 -44 15 0 20 5 17 22 -3 22 -19 33 -31 22z"/>
 <path d="M1416 1173 c-3 -4 -6 -15 -6 -25 0 -24 33 -21 38 3 3 17 -21 33 -32 22z"/>
 <path d="M1629 1164 c-9 -11 -9 -18 -1 -26 14 -14 42 -3 42 16 0 20 -27 27 -41 10z"/>
 <path d="M2171 1167 c-14 -17 3 -41 23 -34 9 4 16 13 16 21 0 19 -26 28 -39 13z"/>
 <path d="M2227 1174 c-16 -16 -7 -44 14 -44 15 0 20 5 17 22 -3 22 -19 33 -31 22z"/>
 <path d="M2337 1174 c-16 -16 -7 -44 14 -44 15 0 20 5 17 22 -3 22 -19 33 -31 22z"/>
 <path d="M2390 1170 c-18 -11 -4 -42 17 -38 10 2 19 10 21 19 4 19 -19 31 -38 19z"/>
 <path d="M595 1110 c-4 -7 -3 -16 3 -22 14 -14 45 -2 40 15 -6 16 -34 21 -43 7z"/>
 <path d="M650 1100 c0 -13 7 -20 20 -20 13 0 20 7 20 20 0 13 -7 20 -20 20 -13 0 -20 -7 -20 -20z"/>
 <path d="M700 1100 c0 -13 7 -20 20 -20 13 0 20 7 20 20 0 13 -7 20 -20 20 -13 0 -20 -7 -20 -20z"/>
 <path d="M760 1100 c0 -13 7 -20 20 -20 13 0 20 7 20 20 0 13 -7 20 -20 20 -13 0 -20 -7 -20 -20z"/>
 <path d="M810 1100 c0 -13 7 -20 20 -20 13 0 20 7 20 20 0 13 -7 20 -20 20 -13 0 -20 -7 -20 -20z"/>
 <path d="M865 1110 c-4 -7 -3 -16 3 -22 14 -14 45 -2 40 15 -6 16 -34 21 -43 7z"/>
 <path d="M1300 1100 c0 -13 7 -20 20 -20 13 0 20 7 20 20 0 13 -7 20 -20 20 -13 0 -20 -7 -20 -20z"/>
 <path d="M1357 1114 c-16 -16 -6 -35 16 -32 12 2 22 10 22 18 0 16 -26 25 -38 14z"/>
 <path d="M1410 1100 c0 -13 7 -20 20 -20 13 0 20 7 20 20 0 13 -7 20 -20 20 -13 0 -20 -7 -20 -20z"/>
 <path d="M1460 1101 c0 -16 8 -19 50 -19 36 0 50 4 50 14 0 20 -27 29 -45 14 -10 -9 -15 -9 -15 -1 0 6 -9 11 -20 11 -13 0 -20 -7 -20 -19z"/>
 <path d="M1625 1110 c-4 -7 -3 -16 3 -22 14 -14 45 -2 40 15 -6 16 -34 21 -43 7z"/>
 <path d="M2275 1110 c-4 -7 -3 -16 3 -22 14 -14 45 -2 40 15 -6 16 -34 21 -43 7z"/>
 <path d="M2387 1114 c-16 -16 -6 -35 16 -32 12 2 22 10 22 18 0 16 -26 25 -38 14z"/>
 <path d="M594 1055 c-4 -9 -2 -21 4 -27 15 -15 44 -1 40 19 -4 23 -36 29 -44 8z"/>
 <path d="M653 1054 c-8 -21 13 -42 28 -27 13 13 5 43 -11 43 -6 0 -13 -7 -17 -16z"/>
 <path d="M704 1055 c-7 -18 3 -35 22 -35 8 0 14 10 14 25 0 27 -27 35 -36 10z"/>
 <path d="M760 1045 c0 -20 4 -26 18 -23 9 2 17 12 17 23 0 11 -8 21 -17 23 -14 3 -18 -3 -18 -23z"/>
 <path d="M813 1054 c-8 -21 13 -42 28 -27 13 13 5 43 -11 43 -6 0 -13 -7 -17 -16z"/>
 <path d="M864 1055 c-4 -9 -2 -21 4 -27 15 -15 44 -1 40 19 -4 23 -36 29 -44 8z"/>
 <path d="M923 1054 c-8 -21 13 -42 28 -27 13 13 5 43 -11 43 -6 0 -13 -7 -17 -16z"/>
 <path d="M1303 1054 c-8 -21 13 -42 28 -27 13 13 5 43 -11 43 -6 0 -13 -7 -17 -16z"/>
 <path d="M1354 1055 c-4 -9 -2 -21 4 -27 15 -15 44 -1 40 19 -4 23 -36 29 -44 8z"/>
 <path d="M1417 1064 c-15 -15 -7 -45 11 -42 9 2 17 12 17 22 0 20 -16 31 -28 20z"/>
 <path d="M1464 1055 c-11 -29 28 -51 39 -22 4 9 8 9 15 -2 12 -17 42 -7 42 14 0 21 -30 31 -42 14 -7 -11 -11 -11 -15 -1 -7 17 -32 15 -39 -3z"/>
 <path d="M2063 1054 c-8 -21 13 -42 28 -27 13 13 5 43 -11 43 -6 0 -13 -7 -17 -16z"/>
 <path d="M2167 1057 c-3 -8 -2 -20 3 -27 11 -18 42 -4 38 17 -4 22 -34 29 -41 10z"/>
 <path d="M2384 1055 c-4 -9 -2 -21 4 -27 15 -15 44 -1 40 19 -4 23 -36 29 -44 8z"/>
 <path d="M2443 1054 c-8 -21 13 -42 28 -27 13 13 5 43 -11 43 -6 0 -13 -7 -17 -16z"/>
 <path d="M595 1000 c-4 -7 -3 -16 3 -22 14 -14 45 -2 40 15 -6 16 -34 21 -43 7z"/>
 <path d="M650 990 c0 -13 7 -20 20 -20 13 0 20 7 20 20 0 13 -7 20 -20 20 -13 0 -20 -7 -20 -20z"/>
 <path d="M700 990 c0 -13 7 -20 20 -20 13 0 20 7 20 20 0 13 -7 20 -20 20 -13 0 -20 -7 -20 -20z"/>
 <path d="M760 990 c0 -13 7 -20 20 -20 13 0 20 7 20 20 0 13 -7 20 -20 20 -13 0 -20 -7 -20 -20z"/>
 <path d="M810 990 c0 -13 7 -20 20 -20 13 0 20 7 20 20 0 13 -7 20 -20 20 -13 0 -20 -7 -20 -20z"/>
 <path d="M865 1000 c-4 -7 -3 -16 3 -22 14 -14 45 -2 40 15 -6 16 -34 21 -43 7z"/>
 <path d="M1300 990 c0 -13 7 -20 20 -20 13 0 20 7 20 20 0 13 -7 20 -20 20 -13 0 -20 -7 -20 -20z"/>
 <path d="M1352 993 c4 -22 43 -25 43 -3 0 8 -11 16 -23 18 -19 3 -23 0 -20 -15z"/>
 <path d="M1410 990 c0 -13 7 -20 20 -20 13 0 20 7 20 20 0 13 -7 20 -20 20 -13 0 -20 -7 -20 -20z"/>
 <path d="M1460 989 c0 -15 7 -18 47 -16 35 1 49 6 51 18 2 14 -6 17 -47 17 -43 0 -51 -3 -51 -19z"/>
 <path d="M2002 993 c4 -22 43 -25 43 -3 0 8 -11 16 -23 18 -19 3 -23 0 -20 -15z"/>
 <path d="M2110 990 c0 -13 7 -20 20 -20 13 0 20 7 20 20 0 13 -7 20 -20 20 -13 0 -20 -7 -20 -20z"/>
 <path d="M2165 1000 c-9 -15 4 -30 26 -30 12 0 19 7 19 20 0 21 -33 29 -45 10z"/>
 <path d="M2330 990 c0 -13 7 -20 20 -20 13 0 20 7 20 20 0 13 -7 20 -20 20 -13 0 -20 -7 -20 -20z"/>
 <path d="M2385 1000 c-4 -7 -3 -16 3 -22 14 -14 45 -2 40 15 -6 16 -34 21 -43 7z"/>
 <path d="M594 945 c-8 -19 12 -36 33 -28 19 7 12 37 -10 41 -9 2 -20 -4 -23 -13z"/>
 <path d="M650 941 c0 -11 4 -22 8 -25 14 -9 35 12 29 28 -9 23 -37 20 -37 -3z"/>
 <path d="M703 944 c-6 -16 15 -37 29 -28 4 3 8 14 8 25 0 23 -28 26 -37 3z"/>
 <path d="M760 941 c0 -11 4 -22 8 -25 14 -9 35 12 29 28 -9 23 -37 20 -37 -3z"/>
 <path d="M1137 946 c-7 -18 1 -26 25 -26 13 0 18 6 16 17 -4 22 -34 29 -41 9z"/>
 <path d="M1190 940 c0 -13 7 -20 20 -20 13 0 20 7 20 20 0 13 -7 20 -20 20 -13 0 -20 -7 -20 -20z"/>
 <path d="M1245 951 c-9 -16 3 -31 26 -31 14 0 19 6 17 17 -4 20 -33 29 -43 14z"/>
 <path d="M1302 938 c2 -13 10 -23 18 -23 8 0 16 10 18 23 3 17 -2 22 -18 22 -16 0 -21 -5 -18 -22z"/>
 <path d="M1353 944 c-8 -22 18 -37 36 -20 7 8 10 19 7 25 -10 16 -36 13 -43 -5z"/>
 <path d="M1412 938 c2 -12 10 -23 18 -23 22 0 19 39 -3 43 -15 3 -18 -1 -15 -20z"/>
 <path d="M1463 944 c-6 -16 15 -37 29 -28 4 3 8 14 8 25 0 23 -28 26 -37 3z"/>
 <path d="M1517 946 c-8 -19 15 -37 32 -26 17 10 7 40 -13 40 -7 0 -16 -6 -19 -14z"/>
 <path d="M1572 938 c2 -13 10 -23 18 -23 8 0 16 10 18 23 3 17 -2 22 -18 22 -16 0 -21 -5 -18 -22z"/>
 <path d="M1952 938 c2 -13 10 -23 18 -23 8 0 16 10 18 23 3 17 -2 22 -18 22 -16 0 -21 -5 -18 -22z"/>
 <path d="M2003 944 c-8 -22 18 -37 36 -20 7 8 10 19 7 25 -10 16 -36 13 -43 -5z"/>
 <path d="M2113 944 c-6 -16 15 -37 29 -28 4 3 8 14 8 25 0 23 -28 26 -37 3z"/>
 <path d="M540 880 c0 -13 7 -20 20 -20 13 0 20 7 20 20 0 13 -7 20 -20 20 -13 0 -20 -7 -20 -20z"/>
 <path d="M650 880 c0 -13 7 -20 20 -20 13 0 20 7 20 20 0 13 -7 20 -20 20 -13 0 -20 -7 -20 -20z"/>
 <path d="M702 883 c5 -26 38 -29 38 -4 0 15 -6 21 -21 21 -14 0 -19 -5 -17 -17z"/>
 <path d="M1080 880 c0 -13 7 -20 20 -20 13 0 20 7 20 20 0 13 -7 20 -20 20 -13 0 -20 -7 -20 -20z"/>
 <path d="M1136 892 c-9 -14 12 -35 28 -29 23 9 20 37 -3 37 -11 0 -22 -4 -25 -8z"/>
 <path d="M1190 880 c0 -13 7 -20 20 -20 13 0 20 7 20 20 0 13 -7 20 -20 20 -13 0 -20 -7 -20 -20z"/>
 <path d="M1242 883 c2 -10 12 -18 23 -18 11 0 21 8 23 18 3 13 -3 17 -23 17 -20 0 -26 -4 -23 -17z"/>
 <path d="M1300 880 c0 -13 7 -20 20 -20 13 0 20 7 20 20 0 13 -7 20 -20 20 -13 0 -20 -7 -20 -20z"/>
 <path d="M1352 883 c4 -22 43 -25 43 -3 0 8 -11 16 -23 18 -19 3 -23 0 -20 -15z"/>
 <path d="M1410 879 c0 -14 5 -19 17 -17 26 5 29 38 4 38 -15 0 -21 -6 -21 -21z"/>
 <path d="M1460 884 c0 -19 32 -32 38 -15 3 9 7 9 18 0 17 -14 44 -5 44 15 0 10 -14 14 -50 14 -36 0 -50 -4 -50 -14z"/>
 <path d="M1570 880 c0 -13 7 -20 20 -20 13 0 20 7 20 20 0 13 -7 20 -20 20 -13 0 -20 -7 -20 -20z"/>
 <path d="M1840 880 c0 -13 7 -20 20 -20 13 0 20 7 20 20 0 13 -7 20 -20 20 -13 0 -20 -7 -20 -20z"/>
 <path d="M2002 883 c2 -10 12 -18 23 -18 11 0 21 8 23 18 3 13 -3 17 -23 17 -20 0 -26 -4 -23 -17z"/>
 <path d="M2220 880 c0 -13 7 -20 20 -20 13 0 20 7 20 20 0 13 -7 20 -20 20 -13 0 -20 -7 -20 -20z"/>
 <path d="M430 830 c0 -13 7 -20 20 -20 13 0 20 7 20 20 0 13 -7 20 -20 20 -13 0 -20 -7 -20 -20z"/>
 <path d="M485 841 c-9 -16 3 -31 26 -31 14 0 19 6 17 17 -4 20 -33 29 -43 14z"/>
 <path d="M540 830 c0 -13 7 -20 20 -20 13 0 20 7 20 20 0 13 -7 20 -20 20 -13 0 -20 -7 -20 -20z"/>
 <path d="M1080 830 c0 -13 7 -20 20 -20 13 0 20 7 20 20 0 13 -7 20 -20 20 -13 0 -20 -7 -20 -20z"/>
 <path d="M1137 836 c-7 -18 1 -26 25 -26 13 0 18 6 16 17 -4 22 -34 29 -41 9z"/>
 <path d="M1190 830 c0 -13 7 -20 20 -20 13 0 20 7 20 20 0 13 -7 20 -20 20 -13 0 -20 -7 -20 -20z"/>
 <path d="M1245 841 c-9 -16 3 -31 26 -31 14 0 19 6 17 17 -4 20 -33 29 -43 14z"/>
 <path d="M1300 830 c0 -13 7 -20 20 -20 13 0 20 7 20 20 0 13 -7 20 -20 20 -13 0 -20 -7 -20 -20z"/>
 <path d="M1357 844 c-16 -16 -6 -35 16 -32 12 2 22 10 22 18 0 16 -26 25 -38 14z"/>
 <path d="M1410 830 c0 -13 7 -20 20 -20 13 0 20 7 20 20 0 13 -7 20 -20 20 -13 0 -20 -7 -20 -20z"/>
 <path d="M1467 843 c-14 -13 -6 -33 13 -33 13 0 20 7 20 20 0 19 -20 27 -33 13z"/>
 <path d="M1515 841 c-9 -16 3 -31 26 -31 14 0 19 6 17 17 -4 20 -33 29 -43 14z"/>
 <path d="M1627 844 c-16 -16 -6 -34 19 -34 19 0 25 5 22 17 -3 19 -29 29 -41 17z"/>
 <path d="M1787 836 c-7 -18 1 -26 25 -26 13 0 18 6 16 17 -4 22 -34 29 -41 9z"/>
 <path d="M1840 830 c0 -13 7 -20 20 -20 13 0 20 7 20 20 0 13 -7 20 -20 20 -13 0 -20 -7 -20 -20z"/>
 <path d="M2007 844 c-16 -16 -6 -35 16 -32 12 2 22 10 22 18 0 16 -26 25 -38 14z"/>
 <path d="M2060 830 c0 -13 7 -20 20 -20 13 0 20 7 20 20 0 13 -7 20 -20 20 -13 0 -20 -7 -20 -20z"/>
 <path d="M2167 836 c-7 -18 1 -26 25 -26 13 0 18 6 16 17 -4 22 -34 29 -41 9z"/>
 <path d="M387 794 c-15 -15 -7 -45 11 -42 9 2 17 12 17 22 0 20 -16 31 -28 20z"/>
 <path d="M434 786 c-7 -19 3 -36 22 -36 10 0 14 8 12 22 -4 26 -26 36 -34 14z"/>
 <path d="M594 785 c-7 -18 3 -35 22 -35 20 0 30 30 13 41 -20 12 -29 11 -35 -6z"/>
 <path d="M1084 786 c-7 -19 3 -36 22 -36 10 0 14 8 12 22 -4 26 -26 36 -34 14z"/>
 <path d="M1142 787 c-15 -17 1 -42 23 -33 18 6 17 37 -1 43 -6 2 -16 -2 -22 -10z"/>
 <path d="M1194 786 c-7 -19 3 -36 22 -36 10 0 14 8 12 22 -4 26 -26 36 -34 14z"/>
 <path d="M1244 785 c-4 -9 -2 -21 4 -27 15 -15 44 -1 40 19 -4 23 -36 29 -44 8z"/>
 <path d="M1303 784 c-8 -21 13 -42 28 -27 13 13 5 43 -11 43 -6 0 -13 -7 -17 -16z"/>
 <path d="M1354 785 c-7 -18 3 -35 21 -35 21 0 28 19 15 35 -16 19 -29 19 -36 0z"/>
 <path d="M1417 794 c-15 -15 -7 -45 11 -42 9 2 17 12 17 22 0 20 -16 31 -28 20z"/>
 <path d="M1464 785 c-7 -18 3 -35 21 -35 18 0 26 25 12 39 -15 15 -27 14 -33 -4z"/>
 <path d="M1574 786 c-7 -19 3 -36 22 -36 10 0 14 8 12 22 -4 26 -26 36 -34 14z"/>
 <path d="M1624 785 c-4 -9 -2 -21 4 -27 15 -15 44 -1 40 19 -4 23 -36 29 -44 8z"/>
 <path d="M1687 794 c-16 -16 -7 -44 14 -44 15 0 20 5 17 22 -3 22 -19 33 -31 22z"/>
 <path d="M1792 787 c-15 -17 1 -42 23 -33 18 6 17 37 -1 43 -6 2 -16 -2 -22 -10z"/>
 <path d="M1844 786 c-7 -19 3 -36 22 -36 10 0 14 8 12 22 -4 26 -26 36 -34 14z"/>
 <path d="M1894 785 c-4 -9 -2 -21 4 -27 15 -15 44 -1 40 19 -4 23 -36 29 -44 8z"/>
 <path d="M2004 785 c-7 -18 3 -35 21 -35 21 0 28 19 15 35 -16 19 -29 19 -36 0z"/>
 <path d="M2067 794 c-15 -15 -7 -45 11 -42 9 2 17 12 17 22 0 20 -16 31 -28 20z"/>
 <path d="M3550 763 c0 -5 72 -134 159 -288 156 -275 159 -280 192 -283 l34 -3 128 228 c70 125 143 256 163 291 l36 63 -38 -3 c-36 -3 -41 -7 -82 -80 l-43 -78 -199 0 -199 0 -43 80 c-40 74 -45 80 -75 80 -18 0 -33 -3 -33 -7z m492 -255 c-16 -29 -53 -97 -82 -150 -30 -54 -56 -98 -59 -98 -3 0 -25 35 -48 78 -24 42 -61 110 -83 150 l-41 72 172 0 171 0 -30 -52z"/>
 <path d="M4366 738 c16 -18 78 -84 138 -146 108 -113 108 -113 90 -135 -10 -12 -70 -76 -134 -142 l-115 -120 40 -3 c33 -3 44 1 64 25 13 15 65 71 115 124 l92 95 114 -123 c108 -116 117 -123 153 -123 l39 0 -50 57 c-28 32 -87 94 -131 138 -45 44 -81 83 -81 87 0 4 61 71 135 150 l135 143 -37 3 c-36 3 -41 -1 -159 -125 l-122 -128 -90 95 c-49 53 -102 110 -117 128 -22 26 -34 32 -68 32 l-41 0 30 -32z"/>
 <path d="M5110 480 l0 -290 255 0 255 0 0 25 0 25 -225 0 -225 0 0 105 0 105 200 0 200 0 0 25 0 25 -200 0 -200 0 0 110 0 110 225 0 225 0 0 25 0 25 -255 0 -255 0 0 -290z"/>
 <path d="M5780 480 l0 -290 30 0 30 0 0 265 0 265 205 0 205 0 0 25 0 25 -235 0 -235 0 0 -290z"/>
 <path d="M6390 480 l0 -290 175 0 c189 0 257 10 306 43 53 36 71 69 71 127 0 36 -6 60 -19 79 -29 38 -81 70 -125 77 -21 4 -38 10 -38 14 0 4 48 59 108 121 l107 114 -40 3 c-39 3 -41 2 -153 -117 l-114 -121 -104 0 -104 0 0 120 0 120 -35 0 -35 0 0 -290z m408 -15 c56 -23 82 -57 82 -107 0 -31 -6 -46 -30 -68 -41 -39 -99 -50 -254 -50 l-136 0 0 126 0 126 148 -4 c109 -4 158 -9 190 -23z"/>
 <path d="M7084 708 c20 -35 93 -166 163 -291 l128 -228 34 3 c33 3 36 8 192 283 87 154 159 283 159 288 0 4 -15 7 -33 7 -30 0 -35 -5 -76 -80 l-44 -80 -201 0 -201 0 -43 80 c-41 77 -44 80 -78 80 l-35 0 35 -62z m486 -155 c0 -10 -151 -282 -160 -288 -7 -4 -170 275 -170 290 0 3 74 5 165 5 91 0 165 -3 165 -7z"/>
 <path d="M8000 505 l0 -265 -120 0 -120 0 0 -25 0 -25 275 0 275 0 0 25 0 25 -125 0 -125 0 0 265 0 265 -30 0 -30 0 0 -265z"/>
 <path d="M8450 480 l0 -290 255 0 255 0 0 25 0 25 -220 0 -220 0 0 105 0 105 200 0 200 0 0 25 0 25 -200 0 -200 0 0 110 0 110 220 0 220 0 0 25 0 25 -255 0 -255 0 0 -290z"/>
 <path d="M320 720 c0 -13 7 -20 20 -20 13 0 20 7 20 20 0 13 -7 20 -20 20 -13 0 -20 -7 -20 -20z"/>
 <path d="M380 720 c0 -13 7 -20 20 -20 13 0 20 7 20 20 0 13 -7 20 -20 20 -13 0 -20 -7 -20 -20z"/>
 <path d="M430 720 c0 -13 7 -20 20 -20 13 0 20 7 20 20 0 13 -7 20 -20 20 -13 0 -20 -7 -20 -20z"/>
 <path d="M540 720 c0 -13 7 -20 20 -20 13 0 20 7 20 20 0 13 -7 20 -20 20 -13 0 -20 -7 -20 -20z"/>
 <path d="M1135 730 c-9 -15 4 -30 26 -30 12 0 19 7 19 20 0 21 -33 29 -45 10z"/>
 <path d="M1190 720 c0 -13 7 -20 20 -20 13 0 20 7 20 20 0 13 -7 20 -20 20 -13 0 -20 -7 -20 -20z"/>
 <path d="M1245 730 c-4 -7 -3 -16 3 -22 14 -14 45 -2 40 15 -6 16 -34 21 -43 7z"/>
 <path d="M1300 720 c0 -13 7 -20 20 -20 13 0 20 7 20 20 0 13 -7 20 -20 20 -13 0 -20 -7 -20 -20z"/>
 <path d="M1352 723 c4 -22 43 -25 43 -3 0 8 -11 16 -23 18 -19 3 -23 0 -20 -15z"/>
 <path d="M1410 720 c0 -13 7 -20 20 -20 13 0 20 7 20 20 0 13 -7 20 -20 20 -13 0 -20 -7 -20 -20z"/>
 <path d="M1514 729 c-9 -15 12 -33 30 -26 9 4 16 13 16 22 0 17 -35 21 -46 4z"/>
 <path d="M1570 720 c0 -13 7 -20 20 -20 13 0 20 7 20 20 0 13 -7 20 -20 20 -13 0 -20 -7 -20 -20z"/>
 <path d="M1625 730 c-4 -7 -3 -16 3 -22 14 -14 45 -2 40 15 -6 16 -34 21 -43 7z"/>
 <path d="M1730 719 c0 -12 7 -19 20 -19 11 0 20 5 20 12 0 9 3 9 12 0 19 -19 48 -15 48 7 0 16 -8 19 -50 19 -42 0 -50 -3 -50 -19z"/>
 <path d="M1840 720 c0 -13 7 -20 20 -20 13 0 20 7 20 20 0 13 -7 20 -20 20 -13 0 -20 -7 -20 -20z"/>
 <path d="M1895 730 c-4 -7 -3 -16 3 -22 14 -14 45 -2 40 15 -6 16 -34 21 -43 7z"/>
 <path d="M1950 720 c0 -13 7 -20 20 -20 13 0 20 7 20 20 0 13 -7 20 -20 20 -13 0 -20 -7 -20 -20z"/>
 <path d="M2002 723 c4 -22 43 -25 43 -3 0 8 -11 16 -23 18 -19 3 -23 0 -20 -15z"/>
 <path d="M2060 720 c0 -13 7 -20 20 -20 13 0 20 7 20 20 0 13 -7 20 -20 20 -13 0 -20 -7 -20 -20z"/>
 <path d="M2110 720 c0 -13 7 -20 20 -20 13 0 20 7 20 20 0 13 -7 20 -20 20 -13 0 -20 -7 -20 -20z"/>
 <path d="M323 674 c-7 -18 11 -39 26 -30 17 11 13 46 -4 46 -9 0 -18 -7 -22 -16z"/>
 <path d="M382 668 c2 -12 10 -23 18 -23 22 0 19 39 -3 43 -15 3 -18 -1 -15 -20z"/>
 <path d="M433 674 c-7 -18 11 -39 26 -30 17 11 13 46 -4 46 -9 0 -18 -7 -22 -16z"/>
 <path d="M484 675 c-8 -19 12 -36 33 -28 19 7 12 37 -10 41 -9 2 -20 -4 -23 -13z"/>
 <path d="M543 674 c-7 -18 11 -39 26 -30 17 11 13 46 -4 46 -9 0 -18 -7 -22 -16z"/>
 <path d="M1193 674 c-7 -18 11 -39 26 -30 17 11 13 46 -4 46 -9 0 -18 -7 -22 -16z"/>
 <path d="M1244 675 c-8 -19 12 -36 33 -28 19 7 12 37 -10 41 -9 2 -20 -4 -23 -13z"/>
 <path d="M1412 668 c2 -12 10 -23 18 -23 22 0 19 39 -3 43 -15 3 -18 -1 -15 -20z"/>
 <path d="M1517 676 c-8 -20 20 -43 35 -28 14 14 3 42 -16 42 -7 0 -16 -6 -19 -14z"/>
 <path d="M1573 674 c-7 -18 11 -39 26 -30 17 11 13 46 -4 46 -9 0 -18 -7 -22 -16z"/>
 <path d="M1624 675 c-8 -19 12 -36 33 -28 19 7 12 37 -10 41 -9 2 -20 -4 -23 -13z"/>
 <path d="M1682 668 c2 -12 10 -23 18 -23 22 0 19 39 -3 43 -15 3 -18 -1 -15 -20z"/>
 <path d="M1733 674 c-9 -23 13 -40 32 -24 12 10 18 10 30 0 16 -14 35 -5 35 16 0 20 -30 30 -42 13 -7 -11 -11 -11 -15 -1 -7 17 -32 15 -40 -4z"/>
 <path d="M1843 674 c-7 -18 11 -39 26 -30 17 11 13 46 -4 46 -9 0 -18 -7 -22 -16z"/>
 <path d="M1894 675 c-8 -19 12 -36 33 -28 19 7 12 37 -10 41 -9 2 -20 -4 -23 -13z"/>
 <path d="M1953 674 c-7 -18 11 -39 26 -30 17 11 13 46 -4 46 -9 0 -18 -7 -22 -16z"/>
 <path d="M2003 674 c-8 -22 18 -37 36 -20 7 8 10 19 7 25 -10 16 -36 13 -43 -5z"/>
 <path d="M2062 668 c2 -12 10 -23 18 -23 22 0 19 39 -3 43 -15 3 -18 -1 -15 -20z"/>
 <path d="M2113 674 c-7 -18 11 -39 26 -30 17 11 13 46 -4 46 -9 0 -18 -7 -22 -16z"/>
 <path d="M2274 675 c-8 -19 12 -36 33 -28 19 7 12 37 -10 41 -9 2 -20 -4 -23 -13z"/>
 <path d="M270 610 c0 -13 7 -20 20 -20 13 0 20 7 20 20 0 13 -7 20 -20 20 -13 0 -20 -7 -20 -20z"/>
 <path d="M322 613 c5 -26 38 -29 38 -4 0 15 -6 21 -21 21 -14 0 -19 -5 -17 -17z"/>
 <path d="M380 609 c0 -14 5 -19 17 -17 26 5 29 38 4 38 -15 0 -21 -6 -21 -21z"/>
 <path d="M430 610 c0 -13 7 -20 20 -20 13 0 20 7 20 20 0 13 -7 20 -20 20 -13 0 -20 -7 -20 -20z"/>
 <path d="M484 619 c-9 -15 12 -33 30 -26 9 4 16 13 16 22 0 17 -35 21 -46 4z"/>
 <path d="M540 610 c0 -13 7 -20 20 -20 13 0 20 7 20 20 0 13 -7 20 -20 20 -13 0 -20 -7 -20 -20z"/>
 <path d="M592 613 c4 -22 43 -25 43 -3 0 8 -11 16 -23 18 -19 3 -23 0 -20 -15z"/>
 <path d="M1136 622 c-9 -14 12 -35 28 -29 23 9 20 37 -3 37 -11 0 -22 -4 -25 -8z"/>
 <path d="M1352 613 c4 -22 43 -25 43 -3 0 8 -11 16 -23 18 -19 3 -23 0 -20 -15z"/>
 <path d="M1514 619 c-9 -15 12 -33 30 -26 9 4 16 13 16 22 0 17 -35 21 -46 4z"/>
 <path d="M1570 610 c0 -13 7 -20 20 -20 13 0 20 7 20 20 0 13 -7 20 -20 20 -13 0 -20 -7 -20 -20z"/>
 <path d="M1622 613 c4 -22 43 -25 43 -3 0 8 -11 16 -23 18 -19 3 -23 0 -20 -15z"/>
 <path d="M1680 610 c0 -13 7 -20 20 -20 13 0 20 7 20 20 0 13 -7 20 -20 20 -13 0 -20 -7 -20 -20z"/>
 <path d="M1730 614 c0 -19 32 -32 38 -15 3 9 7 9 18 0 17 -14 44 -5 44 15 0 10 -14 14 -50 14 -36 0 -50 -4 -50 -14z"/>
 <path d="M1840 610 c0 -13 7 -20 20 -20 13 0 20 7 20 20 0 13 -7 20 -20 20 -13 0 -20 -7 -20 -20z"/>
 <path d="M1894 619 c-9 -15 12 -33 30 -26 9 4 16 13 16 22 0 17 -35 21 -46 4z"/>
 <path d="M1950 610 c0 -13 7 -20 20 -20 13 0 20 7 20 20 0 13 -7 20 -20 20 -13 0 -20 -7 -20 -20z"/>
 <path d="M2002 613 c4 -22 43 -25 43 -3 0 8 -11 16 -23 18 -19 3 -23 0 -20 -15z"/>
 <path d="M2060 610 c0 -13 7 -20 20 -20 13 0 20 7 20 20 0 13 -7 20 -20 20 -13 0 -20 -7 -20 -20z"/>
 <path d="M2112 613 c5 -26 38 -29 38 -4 0 15 -6 21 -21 21 -14 0 -19 -5 -17 -17z"/>
 <path d="M2220 610 c0 -13 7 -20 20 -20 13 0 20 7 20 20 0 13 -7 20 -20 20 -13 0 -20 -7 -20 -20z"/>
 <path d="M2330 610 c0 -13 7 -20 20 -20 13 0 20 7 20 20 0 13 -7 20 -20 20 -13 0 -20 -7 -20 -20z"/>
 <path d="M270 560 c0 -13 7 -20 20 -20 13 0 20 7 20 20 0 13 -7 20 -20 20 -13 0 -20 -7 -20 -20z"/>
 <path d="M327 573 c-14 -13 -7 -33 11 -33 24 0 32 8 25 26 -5 15 -25 19 -36 7z"/>
 <path d="M380 561 c0 -15 6 -21 21 -21 14 0 19 5 17 17 -5 26 -38 29 -38 4z"/>
 <path d="M430 560 c0 -13 7 -20 20 -20 13 0 20 7 20 20 0 13 -7 20 -20 20 -13 0 -20 -7 -20 -20z"/>
 <path d="M485 571 c-9 -16 3 -31 26 -31 14 0 19 6 17 17 -4 20 -33 29 -43 14z"/>
 <path d="M540 560 c0 -13 7 -20 20 -20 13 0 20 7 20 20 0 13 -7 20 -20 20 -13 0 -20 -7 -20 -20z"/>
 <path d="M597 574 c-16 -16 -6 -35 16 -32 12 2 22 10 22 18 0 16 -26 25 -38 14z"/>
 <path d="M650 560 c0 -13 7 -20 20 -20 13 0 20 7 20 20 0 13 -7 20 -20 20 -13 0 -20 -7 -20 -20z"/>
 <path d="M707 573 c-14 -13 -6 -33 13 -33 13 0 20 7 20 20 0 19 -20 27 -33 13z"/>
 <path d="M1137 566 c-7 -18 1 -26 25 -26 13 0 18 6 16 17 -4 22 -34 29 -41 9z"/>
 <path d="M1190 560 c0 -13 7 -20 20 -20 13 0 20 7 20 20 0 13 -7 20 -20 20 -13 0 -20 -7 -20 -20z"/>
 <path d="M1300 560 c0 -13 7 -20 20 -20 13 0 20 7 20 20 0 13 -7 20 -20 20 -13 0 -20 -7 -20 -20z"/>
 <path d="M1410 560 c0 -13 7 -20 20 -20 13 0 20 7 20 20 0 13 -7 20 -20 20 -13 0 -20 -7 -20 -20z"/>
 <path d="M1467 573 c-14 -13 -7 -33 11 -33 24 0 32 8 25 26 -5 15 -25 19 -36 7z"/>
 <path d="M1570 560 c0 -13 7 -20 20 -20 13 0 20 7 20 20 0 13 -7 20 -20 20 -13 0 -20 -7 -20 -20z"/>
 <path d="M1680 560 c0 -13 7 -20 20 -20 13 0 20 7 20 20 0 13 -7 20 -20 20 -13 0 -20 -7 -20 -20z"/>
 <path d="M1737 573 c-20 -19 -4 -31 43 -31 36 0 50 4 50 14 0 21 -30 30 -42 13 -7 -11 -11 -11 -15 -1 -5 13 -25 16 -36 5z"/>
 <path d="M1840 560 c0 -13 7 -20 20 -20 13 0 20 7 20 20 0 13 -7 20 -20 20 -13 0 -20 -7 -20 -20z"/>
 <path d="M1895 571 c-9 -16 3 -31 26 -31 14 0 19 6 17 17 -4 20 -33 29 -43 14z"/>
 <path d="M1950 560 c0 -13 7 -20 20 -20 13 0 20 7 20 20 0 13 -7 20 -20 20 -13 0 -20 -7 -20 -20z"/>
 <path d="M2007 574 c-16 -16 -6 -35 16 -32 12 2 22 10 22 18 0 16 -26 25 -38 14z"/>
 <path d="M2060 560 c0 -13 7 -20 20 -20 13 0 20 7 20 20 0 13 -7 20 -20 20 -13 0 -20 -7 -20 -20z"/>
 <path d="M2117 573 c-14 -13 -6 -33 13 -33 13 0 20 7 20 20 0 19 -20 27 -33 13z"/>
 <path d="M2167 566 c-7 -18 1 -26 25 -26 13 0 18 6 16 17 -4 22 -34 29 -41 9z"/>
 <path d="M2330 560 c0 -13 7 -20 20 -20 13 0 20 7 20 20 0 13 -7 20 -20 20 -13 0 -20 -7 -20 -20z"/>
 <path d="M277 524 c-15 -15 -7 -45 11 -42 9 2 17 12 17 22 0 20 -16 31 -28 20z"/>
 <path d="M324 516 c-7 -19 3 -36 22 -36 10 0 14 8 12 22 -4 26 -26 36 -34 14z"/>
 <path d="M387 524 c-15 -15 -7 -45 11 -42 9 2 17 12 17 22 0 20 -16 31 -28 20z"/>
 <path d="M434 516 c-7 -19 3 -36 22 -36 10 0 14 8 12 22 -4 26 -26 36 -34 14z"/>
 <path d="M484 515 c-4 -9 -2 -21 4 -27 15 -15 44 -1 40 19 -4 23 -36 29 -44 8z"/>
 <path d="M543 514 c-8 -21 13 -42 28 -27 13 13 5 43 -11 43 -6 0 -13 -7 -17 -16z"/>
 <path d="M594 515 c-4 -9 -2 -21 4 -27 15 -15 44 -1 40 19 -4 23 -36 29 -44 8z"/>
 <path d="M657 524 c-15 -15 -7 -45 11 -42 9 2 17 12 17 22 0 20 -16 31 -28 20z"/>
 <path d="M704 516 c-7 -19 3 -36 22 -36 10 0 14 8 12 22 -4 26 -26 36 -34 14z"/>
 <path d="M1194 516 c-7 -19 3 -36 22 -36 10 0 14 8 12 22 -4 26 -26 36 -34 14z"/>
 <path d="M1244 515 c-4 -9 -2 -21 4 -27 15 -15 44 -1 40 19 -4 23 -36 29 -44 8z"/>
 <path d="M1307 524 c-15 -15 -7 -45 11 -42 9 2 17 12 17 22 0 20 -16 31 -28 20z"/>
 <path d="M1354 515 c-7 -18 3 -35 21 -35 18 0 26 15 19 34 -8 20 -33 21 -40 1z"/>
 <path d="M1417 524 c-15 -15 -7 -45 11 -42 9 2 17 12 17 22 0 20 -16 31 -28 20z"/>
 <path d="M1467 524 c-16 -16 -7 -44 14 -44 15 0 20 5 17 22 -3 22 -19 33 -31 22z"/>
 <path d="M1522 517 c-15 -17 1 -42 23 -33 18 6 17 37 -1 43 -6 2 -16 -2 -22 -10z"/>
 <path d="M1577 524 c-16 -16 -7 -44 14 -44 15 0 20 5 17 22 -3 22 -19 33 -31 22z"/>
 <path d="M1624 515 c-4 -9 -2 -21 4 -27 15 -15 44 -1 40 19 -4 23 -36 29 -44 8z"/>
 <path d="M1683 514 c-8 -21 13 -42 28 -27 13 13 5 43 -11 43 -6 0 -13 -7 -17 -16z"/>
 <path d="M1734 515 c-11 -29 28 -51 39 -22 4 9 8 9 15 -2 12 -17 42 -7 42 13 0 22 -19 30 -36 15 -11 -9 -18 -9 -26 -1 -16 16 -27 15 -34 -3z"/>
 <path d="M1844 516 c-7 -19 3 -36 22 -36 10 0 14 8 12 22 -4 26 -26 36 -34 14z"/>
 <path d="M1894 515 c-4 -9 -2 -21 4 -27 15 -15 44 -1 40 19 -4 23 -36 29 -44 8z"/>
 <path d="M1953 514 c-8 -21 13 -42 28 -27 13 13 5 43 -11 43 -6 0 -13 -7 -17 -16z"/>
 <path d="M2004 515 c-7 -18 3 -35 21 -35 18 0 26 15 19 34 -8 20 -33 21 -40 1z"/>
 <path d="M2067 524 c-15 -15 -7 -45 11 -42 9 2 17 12 17 22 0 20 -16 31 -28 20z"/>
 <path d="M2114 516 c-7 -19 3 -36 22 -36 10 0 14 8 12 22 -4 26 -26 36 -34 14z"/>
 <path d="M2172 517 c-15 -17 1 -42 23 -33 18 6 17 37 -1 43 -6 2 -16 -2 -22 -10z"/>
 <path d="M2224 516 c-7 -19 3 -36 22 -36 10 0 14 8 12 22 -4 26 -26 36 -34 14z"/>
 <path d="M270 450 c0 -13 7 -20 20 -20 13 0 20 7 20 20 0 13 -7 20 -20 20 -13 0 -20 -7 -20 -20z"/>
 <path d="M320 450 c0 -13 7 -20 18 -20 24 0 32 8 25 26 -8 22 -43 17 -43 -6z"/>
 <path d="M380 450 c0 -13 7 -20 20 -20 13 0 20 7 20 20 0 13 -7 20 -20 20 -13 0 -20 -7 -20 -20z"/>
 <path d="M430 450 c0 -13 7 -20 20 -20 13 0 20 7 20 20 0 13 -7 20 -20 20 -13 0 -20 -7 -20 -20z"/>
 <path d="M485 460 c-4 -7 -3 -16 3 -22 14 -14 45 -2 40 15 -6 16 -34 21 -43 7z"/>
 <path d="M540 450 c0 -13 7 -20 20 -20 13 0 20 7 20 20 0 13 -7 20 -20 20 -13 0 -20 -7 -20 -20z"/>
 <path d="M650 450 c0 -13 7 -20 20 -20 13 0 20 7 20 20 0 13 -7 20 -20 20 -13 0 -20 -7 -20 -20z"/>
 <path d="M700 450 c0 -13 7 -20 20 -20 13 0 20 7 20 20 0 13 -7 20 -20 20 -13 0 -20 -7 -20 -20z"/>
 <path d="M760 450 c0 -13 7 -20 20 -20 13 0 20 7 20 20 0 13 -7 20 -20 20 -13 0 -20 -7 -20 -20z"/>
 <path d="M1135 460 c-9 -15 4 -30 26 -30 12 0 19 7 19 20 0 21 -33 29 -45 10z"/>
 <path d="M1190 450 c0 -13 7 -20 20 -20 13 0 20 7 20 20 0 13 -7 20 -20 20 -13 0 -20 -7 -20 -20z"/>
 <path d="M1245 461 c-9 -16 3 -31 26 -31 14 0 19 6 17 17 -4 20 -33 29 -43 14z"/>
 <path d="M1300 450 c0 -13 7 -20 20 -20 13 0 20 7 20 20 0 13 -7 20 -20 20 -13 0 -20 -7 -20 -20z"/>
 <path d="M1355 460 c-4 -7 -3 -16 3 -22 14 -14 45 -2 40 15 -6 16 -34 21 -43 7z"/>
 <path d="M1410 450 c0 -13 7 -20 20 -20 13 0 20 7 20 20 0 13 -7 20 -20 20 -13 0 -20 -7 -20 -20z"/>
 <path d="M1460 450 c0 -13 7 -20 20 -20 13 0 20 7 20 20 0 13 -7 20 -20 20 -13 0 -20 -7 -20 -20z"/>
 <path d="M1515 460 c-9 -15 4 -30 26 -30 12 0 19 7 19 20 0 21 -33 29 -45 10z"/>
 <path d="M1570 450 c0 -13 7 -20 20 -20 13 0 20 7 20 20 0 13 -7 20 -20 20 -13 0 -20 -7 -20 -20z"/>
 <path d="M1625 460 c-4 -7 -3 -16 3 -22 14 -14 45 -2 40 15 -6 16 -34 21 -43 7z"/>
 <path d="M1680 450 c0 -13 7 -20 20 -20 13 0 20 7 20 20 0 13 -7 20 -20 20 -13 0 -20 -7 -20 -20z"/>
 <path d="M1730 450 c0 -15 9 -18 50 -18 41 0 50 3 50 18 0 15 -9 18 -50 18 -41 0 -50 -3 -50 -18z"/>
 <path d="M1840 450 c0 -13 7 -20 20 -20 13 0 20 7 20 20 0 13 -7 20 -20 20 -13 0 -20 -7 -20 -20z"/>
 <path d="M1895 460 c-4 -7 -3 -16 3 -22 14 -14 45 -2 40 15 -6 16 -34 21 -43 7z"/>
 <path d="M1950 450 c0 -13 7 -20 20 -20 13 0 20 7 20 20 0 13 -7 20 -20 20 -13 0 -20 -7 -20 -20z"/>
 <path d="M2005 460 c-4 -7 -3 -16 3 -22 14 -14 45 -2 40 15 -6 16 -34 21 -43 7z"/>
 <path d="M2060 450 c0 -13 7 -20 20 -20 13 0 20 7 20 20 0 13 -7 20 -20 20 -13 0 -20 -7 -20 -20z"/>
 <path d="M2110 450 c0 -13 7 -20 20 -20 13 0 20 7 20 20 0 13 -7 20 -20 20 -13 0 -20 -7 -20 -20z"/>
 <path d="M2165 460 c-9 -15 4 -30 26 -30 12 0 19 7 19 20 0 21 -33 29 -45 10z"/>
 <path d="M2220 450 c0 -13 7 -20 20 -20 13 0 20 7 20 20 0 13 -7 20 -20 20 -13 0 -20 -7 -20 -20z"/>
 <path d="M2275 460 c-4 -7 -3 -16 3 -22 14 -14 45 -2 40 15 -6 16 -34 21 -43 7z"/>
 <path d="M2385 460 c-4 -7 -3 -16 3 -22 14 -14 45 -2 40 15 -6 16 -34 21 -43 7z"/>
 <path d="M53 404 c-7 -18 11 -39 26 -30 17 11 13 46 -4 46 -9 0 -18 -7 -22 -16z"/>
 <path d="M214 405 c-4 -9 -2 -21 4 -27 15 -15 44 -1 40 19 -4 23 -36 29 -44 8z"/>
 <path d="M272 398 c2 -12 10 -23 18 -23 22 0 19 39 -3 43 -15 3 -18 -1 -15 -20z"/>
 <path d="M324 405 c-7 -18 3 -35 21 -35 15 0 24 19 18 38 -6 17 -32 15 -39 -3z"/>
 <path d="M380 395 c0 -20 4 -26 18 -23 9 2 17 12 17 23 0 11 -8 21 -17 23 -14 3 -18 -3 -18 -23z"/>
 <path d="M433 404 c-7 -18 11 -39 26 -30 17 11 13 46 -4 46 -9 0 -18 -7 -22 -16z"/>
 <path d="M484 405 c-4 -9 -2 -21 4 -27 15 -15 44 -1 40 19 -4 23 -36 29 -44 8z"/>
 <path d="M652 398 c2 -12 10 -23 18 -23 22 0 19 39 -3 43 -15 3 -18 -1 -15 -20z"/>
 <path d="M703 404 c-7 -18 11 -39 26 -30 17 11 13 46 -4 46 -9 0 -18 -7 -22 -16z"/>
 <path d="M762 398 c2 -12 10 -23 18 -23 22 0 19 39 -3 43 -15 3 -18 -1 -15 -20z"/>
 <path d="M1193 404 c-8 -21 13 -42 28 -27 13 13 5 43 -11 43 -6 0 -13 -7 -17 -16z"/>
 <path d="M1303 404 c-8 -21 13 -42 28 -27 13 13 5 43 -11 43 -6 0 -13 -7 -17 -16z"/>
 <path d="M1412 398 c2 -12 10 -23 18 -23 22 0 19 39 -3 43 -15 3 -18 -1 -15 -20z"/>
 <path d="M1464 405 c-11 -29 28 -51 39 -22 4 9 8 9 15 -2 12 -17 42 -7 42 14 0 21 -30 31 -42 14 -7 -11 -11 -11 -15 -1 -7 17 -32 15 -39 -3z"/>
 <path d="M1573 404 c-8 -21 13 -42 28 -27 13 13 5 43 -11 43 -6 0 -13 -7 -17 -16z"/>
 <path d="M1624 405 c-4 -9 -2 -21 4 -27 15 -15 44 -1 40 19 -4 23 -36 29 -44 8z"/>
 <path d="M1683 404 c-8 -21 13 -42 28 -27 13 13 5 43 -11 43 -6 0 -13 -7 -17 -16z"/>
 <path d="M1734 405 c-11 -29 28 -51 39 -22 4 9 8 9 15 -2 12 -17 42 -7 42 14 0 21 -30 31 -42 14 -7 -11 -11 -11 -15 -1 -7 17 -32 15 -39 -3z"/>
 <path d="M1843 404 c-7 -18 11 -39 26 -30 17 11 13 46 -4 46 -9 0 -18 -7 -22 -16z"/>
 <path d="M1894 405 c-4 -9 -2 -21 4 -27 15 -15 44 -1 40 19 -4 23 -36 29 -44 8z"/>
 <path d="M1953 404 c-8 -21 13 -42 28 -27 13 13 5 43 -11 43 -6 0 -13 -7 -17 -16z"/>
 <path d="M2004 405 c-7 -18 3 -35 21 -35 15 0 28 27 19 41 -8 14 -34 11 -40 -6z"/>
 <path d="M2062 398 c2 -12 10 -23 18 -23 22 0 19 39 -3 43 -15 3 -18 -1 -15 -20z"/>
 <path d="M2113 404 c-7 -18 11 -39 26 -30 17 11 13 46 -4 46 -9 0 -18 -7 -22 -16z"/>
 <path d="M2167 407 c-3 -8 -2 -20 3 -27 11 -18 42 -4 38 17 -4 22 -34 29 -41 10z"/>
 <path d="M2223 404 c-8 -21 13 -42 28 -27 13 13 5 43 -11 43 -6 0 -13 -7 -17 -16z"/>
 <path d="M2384 405 c-4 -9 -2 -21 4 -27 15 -15 44 -1 40 19 -4 23 -36 29 -44 8z"/>
 <path d="M0 339 c0 -14 5 -19 17 -17 26 5 29 38 4 38 -15 0 -21 -6 -21 -21z"/>
 <path d="M50 340 c0 -13 7 -20 20 -20 13 0 20 7 20 20 0 13 -7 20 -20 20 -13 0 -20 -7 -20 -20z"/>
 <path d="M104 349 c-9 -15 12 -33 30 -26 9 4 16 13 16 22 0 17 -35 21 -46 4z"/>
 <path d="M160 340 c0 -13 7 -20 20 -20 13 0 20 7 20 20 0 13 -7 20 -20 20 -13 0 -20 -7 -20 -20z"/>
 <path d="M212 343 c4 -22 43 -25 43 -3 0 8 -11 16 -23 18 -19 3 -23 0 -20 -15z"/>
 <path d="M270 340 c0 -13 7 -20 20 -20 13 0 20 7 20 20 0 13 -7 20 -20 20 -13 0 -20 -7 -20 -20z"/>
 <path d="M320 345 c0 -21 30 -31 40 -14 11 17 3 29 -21 29 -10 0 -19 -7 -19 -15z"/>
 <path d="M380 340 c0 -13 7 -20 20 -20 13 0 20 7 20 20 0 13 -7 20 -20 20 -13 0 -20 -7 -20 -20z"/>
 <path d="M430 340 c0 -13 7 -20 20 -20 13 0 20 7 20 20 0 13 -7 20 -20 20 -13 0 -20 -7 -20 -20z"/>
 <path d="M484 349 c-9 -15 12 -33 30 -26 9 4 16 13 16 22 0 17 -35 21 -46 4z"/>
 <path d="M540 340 c0 -13 7 -20 20 -20 13 0 20 7 20 20 0 13 -7 20 -20 20 -13 0 -20 -7 -20 -20z"/>
 <path d="M650 340 c0 -13 7 -20 20 -20 13 0 20 7 20 20 0 13 -7 20 -20 20 -13 0 -20 -7 -20 -20z"/>
 <path d="M865 350 c-4 -7 -3 -16 3 -22 14 -14 45 -2 40 15 -6 16 -34 21 -43 7z"/>
 <path d="M1300 340 c0 -13 7 -20 20 -20 13 0 20 7 20 20 0 13 -7 20 -20 20 -13 0 -20 -7 -20 -20z"/>
 <path d="M1352 343 c4 -22 43 -25 43 -3 0 8 -11 16 -23 18 -19 3 -23 0 -20 -15z"/>
 <path d="M1410 340 c0 -13 7 -20 20 -20 13 0 20 7 20 20 0 13 -7 20 -20 20 -13 0 -20 -7 -20 -20z"/>
 <path d="M1460 339 c0 -15 7 -18 47 -16 35 1 49 6 51 18 2 14 -6 17 -47 17 -43 0 -51 -3 -51 -19z"/>
 <path d="M1570 340 c0 -13 7 -20 20 -20 13 0 20 7 20 20 0 13 -7 20 -20 20 -13 0 -20 -7 -20 -20z"/>
 <path d="M1625 350 c-4 -7 -3 -16 3 -22 14 -14 45 -2 40 15 -6 16 -34 21 -43 7z"/>
 <path d="M1680 340 c0 -13 7 -20 20 -20 13 0 20 7 20 20 0 13 -7 20 -20 20 -13 0 -20 -7 -20 -20z"/>
 <path d="M1730 344 c0 -19 32 -32 38 -15 3 9 7 9 18 0 17 -14 44 -5 44 15 0 10 -14 14 -50 14 -36 0 -50 -4 -50 -14z"/>
 <path d="M1840 340 c0 -13 7 -20 20 -20 13 0 20 7 20 20 0 13 -7 20 -20 20 -13 0 -20 -7 -20 -20z"/>
 <path d="M1894 349 c-9 -15 12 -33 30 -26 9 4 16 13 16 22 0 17 -35 21 -46 4z"/>
 <path d="M1950 340 c0 -13 7 -20 20 -20 13 0 20 7 20 20 0 13 -7 20 -20 20 -13 0 -20 -7 -20 -20z"/>
 <path d="M2002 343 c4 -22 43 -25 43 -3 0 8 -11 16 -23 18 -19 3 -23 0 -20 -15z"/>
 <path d="M2060 340 c0 -13 7 -20 20 -20 13 0 20 7 20 20 0 13 -7 20 -20 20 -13 0 -20 -7 -20 -20z"/>
 <path d="M2110 340 c0 -13 7 -20 20 -20 13 0 20 7 20 20 0 13 -7 20 -20 20 -13 0 -20 -7 -20 -20z"/>
 <path d="M2166 352 c-9 -14 12 -35 28 -29 23 9 20 37 -3 37 -11 0 -22 -4 -25 -8z"/>
 <path d="M2220 340 c0 -13 7 -20 20 -20 13 0 20 7 20 20 0 13 -7 20 -20 20 -13 0 -20 -7 -20 -20z"/>
 <path d="M2275 350 c-4 -7 -3 -16 3 -22 14 -14 45 -2 40 15 -6 16 -34 21 -43 7z"/>
 <path d="M2330 340 c0 -13 7 -20 20 -20 13 0 20 7 20 20 0 13 -7 20 -20 20 -13 0 -20 -7 -20 -20z"/>
 <path d="M2382 343 c4 -22 43 -25 43 -3 0 8 -11 16 -23 18 -19 3 -23 0 -20 -15z"/>
 <path d="M2440 340 c0 -13 7 -20 20 -20 13 0 20 7 20 20 0 13 -7 20 -20 20 -13 0 -20 -7 -20 -20z"/>
 <path d="M0 291 c0 -15 6 -21 21 -21 14 0 19 5 17 17 -5 26 -38 29 -38 4z"/>
 <path d="M50 290 c0 -13 7 -20 20 -20 13 0 20 7 20 20 0 13 -7 20 -20 20 -13 0 -20 -7 -20 -20z"/>
 <path d="M105 301 c-9 -16 3 -31 26 -31 14 0 19 6 17 17 -4 20 -33 29 -43 14z"/>
 <path d="M160 290 c0 -13 7 -20 20 -20 13 0 20 7 20 20 0 13 -7 20 -20 20 -13 0 -20 -7 -20 -20z"/>
 <path d="M217 304 c-16 -16 -6 -35 16 -32 12 2 22 10 22 18 0 16 -26 25 -38 14z"/>
 <path d="M270 290 c0 -13 7 -20 20 -20 13 0 20 7 20 20 0 13 -7 20 -20 20 -13 0 -20 -7 -20 -20z"/>
 <path d="M327 303 c-14 -13 -6 -33 13 -33 13 0 20 7 20 20 0 19 -20 27 -33 13z"/>
 <path d="M380 291 c0 -15 6 -21 21 -21 14 0 19 5 17 17 -5 26 -38 29 -38 4z"/>
 <path d="M430 290 c0 -13 7 -20 20 -20 13 0 20 7 20 20 0 13 -7 20 -20 20 -13 0 -20 -7 -20 -20z"/>
 <path d="M485 301 c-9 -16 3 -31 26 -31 14 0 19 6 17 17 -4 20 -33 29 -43 14z"/>
 <path d="M540 290 c0 -13 7 -20 20 -20 13 0 20 7 20 20 0 13 -7 20 -20 20 -13 0 -20 -7 -20 -20z"/>
 <path d="M597 304 c-16 -16 -6 -35 16 -32 12 2 22 10 22 18 0 16 -26 25 -38 14z"/>
 <path d="M707 303 c-14 -13 -6 -33 13 -33 13 0 20 7 20 20 0 19 -20 27 -33 13z"/>
 <path d="M867 304 c-16 -16 -6 -34 19 -34 19 0 25 5 22 17 -3 19 -29 29 -41 17z"/>
 <path d="M920 290 c0 -13 7 -20 20 -20 13 0 20 7 20 20 0 13 -7 20 -20 20 -13 0 -20 -7 -20 -20z"/>
 <path d="M1087 303 c-14 -13 -6 -33 13 -33 13 0 20 7 20 20 0 19 -20 27 -33 13z"/>
 <path d="M1300 290 c0 -13 7 -20 20 -20 13 0 20 7 20 20 0 13 -7 20 -20 20 -13 0 -20 -7 -20 -20z"/>
 <path d="M1357 304 c-16 -16 -6 -35 16 -32 12 2 22 10 22 18 0 16 -26 25 -38 14z"/>
 <path d="M1410 290 c0 -13 7 -20 20 -20 13 0 20 7 20 20 0 13 -7 20 -20 20 -13 0 -20 -7 -20 -20z"/>
 <path d="M1460 290 c0 -13 7 -20 20 -20 13 0 20 7 20 20 0 13 -7 20 -20 20 -13 0 -20 -7 -20 -20z"/>
 <path d="M1515 301 c-9 -16 3 -31 26 -31 14 0 19 6 17 17 -4 20 -33 29 -43 14z"/>
 <path d="M1570 290 c0 -13 7 -20 20 -20 13 0 20 7 20 20 0 13 -7 20 -20 20 -13 0 -20 -7 -20 -20z"/>
 <path d="M1625 301 c-9 -16 3 -31 26 -31 14 0 19 6 17 17 -4 20 -33 29 -43 14z"/>
 <path d="M1680 290 c0 -13 7 -20 20 -20 13 0 20 7 20 20 0 13 -7 20 -20 20 -13 0 -20 -7 -20 -20z"/>
 <path d="M1737 303 c-20 -19 -4 -31 43 -31 36 0 50 4 50 14 0 21 -30 30 -42 13 -7 -11 -11 -11 -15 -1 -5 13 -25 16 -36 5z"/>
 <path d="M1840 290 c0 -13 7 -20 20 -20 13 0 20 7 20 20 0 13 -7 20 -20 20 -13 0 -20 -7 -20 -20z"/>
 <path d="M1895 301 c-9 -16 3 -31 26 -31 14 0 19 6 17 17 -4 20 -33 29 -43 14z"/>
 <path d="M1950 290 c0 -13 7 -20 20 -20 13 0 20 7 20 20 0 13 -7 20 -20 20 -13 0 -20 -7 -20 -20z"/>
 <path d="M2007 304 c-16 -16 -6 -35 16 -32 12 2 22 10 22 18 0 16 -26 25 -38 14z"/>
 <path d="M2060 290 c0 -13 7 -20 20 -20 13 0 20 7 20 20 0 13 -7 20 -20 20 -13 0 -20 -7 -20 -20z"/>
 <path d="M2117 303 c-14 -13 -6 -33 13 -33 13 0 20 7 20 20 0 19 -20 27 -33 13z"/>
 <path d="M2167 296 c-7 -18 1 -26 25 -26 13 0 18 6 16 17 -4 22 -34 29 -41 9z"/>
 <path d="M2220 290 c0 -13 7 -20 20 -20 13 0 20 7 20 20 0 13 -7 20 -20 20 -13 0 -20 -7 -20 -20z"/>
 <path d="M2275 301 c-9 -16 3 -31 26 -31 14 0 19 6 17 17 -4 20 -33 29 -43 14z"/>
 <path d="M2330 290 c0 -13 7 -20 20 -20 13 0 20 7 20 20 0 13 -7 20 -20 20 -13 0 -20 -7 -20 -20z"/>
 <path d="M2387 304 c-16 -16 -6 -35 16 -32 12 2 22 10 22 18 0 16 -26 25 -38 14z"/>
 <path d="M2440 290 c0 -13 7 -20 20 -20 13 0 20 7 20 20 0 13 -7 20 -20 20 -13 0 -20 -7 -20 -20z"/>
 <path d="M2497 303 c-14 -13 -6 -33 13 -33 13 0 20 7 20 20 0 19 -20 27 -33 13z"/>
 <path d="M54 246 c-7 -19 3 -36 22 -36 10 0 14 8 12 22 -4 26 -26 36 -34 14z"/>
 <path d="M110 250 c-18 -11 -4 -42 17 -38 10 2 19 10 21 19 4 19 -19 31 -38 19z"/>
 <path d="M167 254 c-16 -16 -7 -44 14 -44 15 0 20 5 17 22 -3 22 -19 33 -31 22z"/>
 <path d="M277 254 c-15 -15 -7 -45 11 -42 9 2 17 12 17 22 0 20 -16 31 -28 20z"/>
 <path d="M324 246 c-7 -19 3 -36 22 -36 10 0 14 8 12 22 -4 26 -26 36 -34 14z"/>
 <path d="M434 246 c-7 -19 3 -36 22 -36 10 0 14 8 12 22 -4 26 -26 36 -34 14z"/>
 <path d="M490 250 c-18 -11 -4 -42 17 -38 10 2 19 10 21 19 4 19 -19 31 -38 19z"/>
 <path d="M657 254 c-15 -15 -7 -45 11 -42 9 2 17 12 17 22 0 20 -16 31 -28 20z"/>
 <path d="M711 250 c-17 -10 -7 -40 14 -40 8 0 15 9 15 19 0 24 -12 32 -29 21z"/>
 <path d="M870 250 c-18 -11 -4 -42 17 -38 10 2 19 10 21 19 4 19 -19 31 -38 19z"/>
 <path d="M927 254 c-16 -16 -7 -44 14 -44 15 0 20 5 17 22 -3 22 -19 33 -31 22z"/>
 <path d="M981 251 c-17 -11 -7 -41 13 -41 22 0 30 20 15 36 -9 8 -19 10 -28 5z"/>
 <path d="M1361 251 c-17 -11 -7 -41 13 -41 22 0 30 20 15 36 -9 8 -19 10 -28 5z"/>
 <path d="M1417 254 c-15 -15 -7 -45 11 -42 9 2 17 12 17 22 0 20 -16 31 -28 20z"/>
 <path d="M1630 250 c-18 -11 -4 -42 17 -38 10 2 19 10 21 19 4 19 -19 31 -38 19z"/>
 <path d="M1687 254 c-15 -15 -7 -45 11 -42 9 2 17 12 17 22 0 20 -16 31 -28 20z"/>
 <path d="M1743 253 c-7 -3 -13 -11 -13 -19 0 -20 30 -30 41 -13 8 12 10 12 18 0 11 -17 41 -7 41 13 0 18 -25 27 -38 14 -8 -8 -15 -8 -24 -1 -7 6 -19 8 -25 6z"/>
 <path d="M1844 246 c-7 -19 3 -36 22 -36 10 0 14 8 12 22 -4 26 -26 36 -34 14z"/>
 <path d="M1899 244 c-9 -11 -9 -18 -1 -26 14 -14 42 -3 42 16 0 20 -27 27 -41 10z"/>
 <path d="M1957 254 c-16 -16 -7 -44 14 -44 15 0 20 5 17 22 -3 22 -19 33 -31 22z"/>
 <path d="M2011 251 c-17 -11 -7 -41 13 -41 22 0 30 20 15 36 -9 8 -19 10 -28 5z"/>
 <path d="M2067 254 c-15 -15 -7 -45 11 -42 9 2 17 12 17 22 0 20 -16 31 -28 20z"/>
 <path d="M2114 246 c-7 -19 3 -36 22 -36 10 0 14 8 12 22 -4 26 -26 36 -34 14z"/>
 <path d="M2172 247 c-15 -17 1 -42 23 -33 18 6 17 37 -1 43 -6 2 -16 -2 -22 -10z"/>
 <path d="M2224 246 c-7 -19 3 -36 22 -36 10 0 14 8 12 22 -4 26 -26 36 -34 14z"/>
 <path d="M2280 250 c-18 -11 -4 -42 17 -38 10 2 19 10 21 19 4 19 -19 31 -38 19z"/>
 <path d="M2337 254 c-16 -16 -7 -44 14 -44 15 0 20 5 17 22 -3 22 -19 33 -31 22z"/>
 <path d="M2390 250 c-18 -11 -4 -42 17 -38 10 2 19 10 21 19 4 19 -19 31 -38 19z"/>
 <path d="M380 180 c0 -13 7 -20 20 -20 13 0 20 7 20 20 0 13 -7 20 -20 20 -13 0 -20 -7 -20 -20z"/>
 <path d="M430 180 c0 -13 7 -20 20 -20 13 0 20 7 20 20 0 13 -7 20 -20 20 -13 0 -20 -7 -20 -20z"/>
 <path d="M540 180 c0 -13 7 -20 20 -20 13 0 20 7 20 20 0 13 -7 20 -20 20 -13 0 -20 -7 -20 -20z"/>
 <path d="M595 190 c-4 -7 -3 -16 3 -22 14 -14 45 -2 40 15 -6 16 -34 21 -43 7z"/>
 <path d="M650 180 c0 -13 7 -20 20 -20 13 0 20 7 20 20 0 13 -7 20 -20 20 -13 0 -20 -7 -20 -20z"/>
 <path d="M810 180 c0 -13 7 -20 20 -20 13 0 20 7 20 20 0 13 -7 20 -20 20 -13 0 -20 -7 -20 -20z"/>
 <path d="M865 190 c-4 -7 -3 -16 3 -22 14 -14 45 -2 40 15 -6 16 -34 21 -43 7z"/>
 <path d="M920 180 c0 -13 7 -20 20 -20 13 0 20 7 20 20 0 13 -7 20 -20 20 -13 0 -20 -7 -20 -20z"/>
 <path d="M977 194 c-16 -16 -6 -35 16 -32 12 2 22 10 22 18 0 16 -26 25 -38 14z"/>
 <path d="M1030 180 c0 -13 7 -20 20 -20 13 0 20 7 20 20 0 13 -7 20 -20 20 -13 0 -20 -7 -20 -20z"/>
 <path d="M1570 180 c0 -13 7 -20 20 -20 13 0 20 7 20 20 0 13 -7 20 -20 20 -13 0 -20 -7 -20 -20z"/>
 <path d="M1680 180 c0 -13 7 -20 20 -20 13 0 20 7 20 20 0 13 -7 20 -20 20 -13 0 -20 -7 -20 -20z"/>
 <path d="M1785 190 c-9 -15 4 -30 26 -30 12 0 19 7 19 20 0 21 -33 29 -45 10z"/>
 <path d="M1840 180 c0 -13 7 -20 20 -20 13 0 20 7 20 20 0 13 -7 20 -20 20 -13 0 -20 -7 -20 -20z"/>
 <path d="M1895 190 c-4 -7 -3 -16 3 -22 14 -14 45 -2 40 15 -6 16 -34 21 -43 7z"/>
 <path d="M1950 180 c0 -13 7 -20 20 -20 13 0 20 7 20 20 0 13 -7 20 -20 20 -13 0 -20 -7 -20 -20z"/>
 <path d="M2007 194 c-16 -16 -6 -35 16 -32 12 2 22 10 22 18 0 16 -26 25 -38 14z"/>
 <path d="M2060 180 c0 -13 7 -20 20 -20 13 0 20 7 20 20 0 13 -7 20 -20 20 -13 0 -20 -7 -20 -20z"/>
 <path d="M2165 190 c-9 -15 4 -30 26 -30 12 0 19 7 19 20 0 21 -33 29 -45 10z"/>
 <path d="M2220 180 c0 -13 7 -20 20 -20 13 0 20 7 20 20 0 13 -7 20 -20 20 -13 0 -20 -7 -20 -20z"/>
 <path d="M380 125 c0 -20 4 -26 18 -23 9 2 17 12 17 23 0 11 -8 21 -17 23 -14 3 -18 -3 -18 -23z"/>
 <path d="M433 134 c-8 -21 13 -42 28 -27 13 13 5 43 -11 43 -6 0 -13 -7 -17 -16z"/>
 <path d="M543 134 c-8 -21 13 -42 28 -27 13 13 5 43 -11 43 -6 0 -13 -7 -17 -16z"/>
 <path d="M653 134 c-8 -21 13 -42 28 -27 13 13 5 43 -11 43 -6 0 -13 -7 -17 -16z"/>
 <path d="M760 125 c0 -20 4 -26 18 -23 9 2 17 12 17 23 0 11 -8 21 -17 23 -14 3 -18 -3 -18 -23z"/>
 <path d="M813 134 c-8 -21 13 -42 28 -27 13 13 5 43 -11 43 -6 0 -13 -7 -17 -16z"/>
 <path d="M864 135 c-4 -9 -2 -21 4 -27 15 -15 44 -1 40 19 -4 23 -36 29 -44 8z"/>
 <path d="M923 134 c-8 -21 13 -42 28 -27 13 13 5 43 -11 43 -6 0 -13 -7 -17 -16z"/>
 <path d="M974 135 c-4 -9 -2 -21 4 -27 15 -15 44 -1 40 19 -4 23 -36 29 -44 8z"/>
 <path d="M1033 134 c-8 -21 13 -42 28 -27 13 13 5 43 -11 43 -6 0 -13 -7 -17 -16z"/>
 <path d="M1303 134 c-8 -21 13 -42 28 -27 13 13 5 43 -11 43 -6 0 -13 -7 -17 -16z"/>
 <path d="M1624 135 c-4 -9 -2 -21 4 -27 15 -15 44 -1 40 19 -4 23 -36 29 -44 8z"/>
 <path d="M1843 134 c-8 -21 13 -42 28 -27 13 13 5 43 -11 43 -6 0 -13 -7 -17 -16z"/>
 <path d="M1894 135 c-4 -9 -2 -21 4 -27 15 -15 44 -1 40 19 -4 23 -36 29 -44 8z"/>
 <path d="M1953 134 c-8 -21 13 -42 28 -27 13 13 5 43 -11 43 -6 0 -13 -7 -17 -16z"/>
 <path d="M592 73 c4 -22 43 -25 43 -3 0 8 -11 16 -23 18 -19 3 -23 0 -20 -15z"/>
 <path d="M650 70 c0 -13 7 -20 20 -20 13 0 20 7 20 20 0 13 -7 20 -20 20 -13 0 -20 -7 -20 -20z"/>
 <path d="M700 70 c0 -13 7 -20 20 -20 13 0 20 7 20 20 0 13 -7 20 -20 20 -13 0 -20 -7 -20 -20z"/>
 <path d="M810 70 c0 -13 7 -20 20 -20 13 0 20 7 20 20 0 13 -7 20 -20 20 -13 0 -20 -7 -20 -20z"/>
 <path d="M865 80 c-4 -7 -3 -16 3 -22 14 -14 45 -2 40 15 -6 16 -34 21 -43 7z"/>
 <path d="M920 70 c0 -13 7 -20 20 -20 13 0 20 7 20 20 0 13 -7 20 -20 20 -13 0 -20 -7 -20 -20z"/>
 <path d="M972 73 c4 -22 43 -25 43 -3 0 8 -11 16 -23 18 -19 3 -23 0 -20 -15z"/>
 <path d="M1030 70 c0 -13 7 -20 20 -20 13 0 20 7 20 20 0 13 -7 20 -20 20 -13 0 -20 -7 -20 -20z"/>
 <path d="M1080 70 c0 -13 7 -20 20 -20 13 0 20 7 20 20 0 13 -7 20 -20 20 -13 0 -20 -7 -20 -20z"/>
 <path d="M1352 73 c4 -22 43 -25 43 -3 0 8 -11 16 -23 18 -19 3 -23 0 -20 -15z"/>
 <path d="M1840 70 c0 -13 7 -20 20 -20 13 0 20 7 20 20 0 13 -7 20 -20 20 -13 0 -20 -7 -20 -20z"/>
 <path d="M920 20 c0 -13 7 -20 20 -20 13 0 20 7 20 20 0 13 -7 20 -20 20 -13 0 -20 -7 -20 -20z"/>
 <path d="M977 34 c-16 -16 -6 -35 16 -32 12 2 22 10 22 18 0 16 -26 25 -38 14z"/>
 <path d="M1030 21 c0 -15 6 -21 21 -21 14 0 19 5 17 17 -5 26 -38 29 -38 4z"/>
 </g>

</svg>