<?xml version="1.0" encoding="iso-8859-1"?>
<!-- Generator: Adobe Illustrator 19.0.0, SVG Export Plug-In . SVG Version: 6.00 Build 0)  -->
<svg version="1.1" id="Capa_1" xmlns="http://www.w3.org/2000/svg" xmlns:xlink="http://www.w3.org/1999/xlink" x="0px" y="0px"
	 viewBox="0 0 496 496" style="enable-background:new 0 0 496 496;" xml:space="preserve">
<g>
	<g>
		<g>
			<path d="M165.576,143.152l-21.448-5.36C158.664,126.04,168,108.096,168,88V64c0-35.288-28.712-64-64-64C68.712,0,40,28.712,40,64
				v24c0,20.096,9.336,38.04,23.872,49.784l-21.448,5.36C17.448,149.392,0,171.736,0,197.48V272v8v24c0,13.232,10.768,24,24,24h16
				v168h128V328h16c13.232,0,24-10.768,24-24v-24v-8v-74.52C208,171.736,190.552,149.392,165.576,143.152z M56,88V64
				c0-26.472,21.528-48,48-48s48,21.528,48,48v24c0,26.472-21.528,48-48,48S56,114.472,56,88z M126.824,147.72l-0.76,3.056
				C123.52,160.92,114.456,168,104,168s-19.52-7.08-22.064-17.224l-0.76-3.056C88.272,150.44,95.952,152,104,152
				C112.048,152,119.728,150.44,126.824,147.72z M40,312H24c-4.416,0-8-3.592-8-8v-24h24V312z M96,480H56v-16h40V480z M152,480h-40
				v-16h40V480z M192,304c0,4.408-3.584,8-8,8h-16v-32h24V304z M192,264h-24v-52.568h-16V272v8h-16v16h16v24v8v120h-40V328H96v120
				H56V328v-8v-24h64v-16H56v-8v-60.568H40V264H16v-66.52c0-18.384,12.464-34.344,30.296-38.808l19.88-4.968l0.24,0.952
				C70.736,171.936,86.192,184,104,184s33.264-12.064,37.576-29.344l0.24-0.952l19.88,4.968C179.536,163.136,192,179.088,192,197.48
				V264z"/>
			<path d="M456,104c22.056,0,40-17.944,40-40c0-22.056-17.944-40-40-40c-19.312,0-35.472,13.768-39.192,32H224v16h192.808
				C420.528,90.232,436.688,104,456,104z M456,40c13.232,0,24,10.768,24,24s-10.768,24-24,24s-24-10.768-24-24S442.768,40,456,40z"
				/>
			<path d="M456,184c-19.312,0-35.472,13.768-39.192,32H224v16h192.808c3.72,18.232,19.872,32,39.192,32c22.056,0,40-17.944,40-40
				C496,201.944,478.056,184,456,184z M456,248c-13.232,0-24-10.768-24-24s10.768-24,24-24s24,10.768,24,24S469.232,248,456,248z"/>
			<path d="M456,344c-19.312,0-35.472,13.768-39.192,32H224v16h192.808c3.72,18.232,19.872,32,39.192,32c22.056,0,40-17.944,40-40
				C496,361.944,478.056,344,456,344z M456,408c-13.232,0-24-10.768-24-24s10.768-24,24-24s24,10.768,24,24S469.232,408,456,408z"/>
			<rect x="368" y="248" width="16" height="16"/>
			<rect x="224" y="248" width="128" height="16"/>
			<rect x="368" y="408" width="16" height="16"/>
			<rect x="224" y="408" width="128" height="16"/>
			<rect x="368" y="88" width="16" height="16"/>
			<rect x="224" y="88" width="128" height="16"/>
		</g>
	</g>
</g>
<g>
</g>
<g>
</g>
<g>
</g>
<g>
</g>
<g>
</g>
<g>
</g>
<g>
</g>
<g>
</g>
<g>
</g>
<g>
</g>
<g>
</g>
<g>
</g>
<g>
</g>
<g>
</g>
<g>
</g>
</svg>
